<svg id="Calque_1" data-name="Calque 1" xmlns="http://www.w3.org/2000/svg" viewBox="0 0 47.59 47.77" fill="#007eca" width="24" height="24"><title>ic-devalider</title><path d="M26.52,1.27A23.38,23.38,0,0,1,45,13.48a22.54,22.54,0,0,1,2.18,6,24.93,24.93,0,0,1,.58,5.41,22.51,22.51,0,0,1-3,11.3,23.1,23.1,0,0,1-6.9,7.62,23.52,23.52,0,0,1-7.18,3.39,22.55,22.55,0,0,1-7.12.83,23.79,23.79,0,0,1-8-1.73,25.22,25.22,0,0,1-6.51-4c-.92-.75-1-1.39-.11-2.25s1.86-1.87,2.8-2.79a1.17,1.17,0,0,1,1.78-.08,17,17,0,0,0,5,3,16.14,16.14,0,0,0,6.88,1,18,18,0,0,0,4.34-.81,16.48,16.48,0,0,0,7.13-4.74,15.6,15.6,0,0,0,3.45-6.13,16.89,16.89,0,0,0,.65-6A16.48,16.48,0,0,0,32.07,9.86a15.94,15.94,0,0,0-5.13-1.69,16.76,16.76,0,0,0-14.67,5c-.43.44-.79,1-1.18,1.44.18.22.38.13.55.13h7.74a5.31,5.31,0,0,1,1,.07,1,1,0,0,1,1,1.12c0,1.38,0,2.77,0,4.15,0,1.11-.54,1.45-1.47,1.53-.52,0-1,0-1.57,0H1.92C.55,21.66.21,21.32.21,20q0-9,0-17.94C.21,1.45.13.82.84.53A1.27,1.27,0,0,1,1.77.25H5.4a1.31,1.31,0,0,1,1,.3C7,.84,7,1.38,7,1.93,7,4.19,7,6.45,7,8.88a23.4,23.4,0,0,1,15.25-7.6A13.27,13.27,0,0,1,26.52,1.27Z" transform="translate(-0.21 -0.23)"/></svg>