<svg id="Calque_2" data-name="Calque 2" xmlns="http://www.w3.org/2000/svg" viewBox="0 0 47.09 47.63" fill="#007eca" width="24" height="24"><title>ic_restaurer</title><path d="M7.83,17.2H2.13C1,17.2.52,16.77.52,15.59c0-3.8,0-7.6,0-11.4a1.34,1.34,0,0,1,.8-1.39c.58-.25,1,.07,1.41.46C4,4.51,5.24,5.73,6.47,7c.31.32.47.25.74,0a23.48,23.48,0,0,1,9-5.46A24.66,24.66,0,0,1,29.57,1a22.77,22.77,0,0,1,7.85,3.61,23.54,23.54,0,0,1,9.5,14.13,23.66,23.66,0,0,1,.66,6.06A23.38,23.38,0,0,1,44,36.59,24,24,0,0,1,30.29,47a22,22,0,0,1-6.93.88,25.78,25.78,0,0,1-5.78-.81,25.15,25.15,0,0,1-8.86-4.49,8.79,8.79,0,0,1-.95-.85,1.11,1.11,0,0,1,0-1.6c.46-.5.94-1,1.43-1.45a1.29,1.29,0,0,1,2-.08,20,20,0,0,0,4.4,2.87,18.29,18.29,0,0,0,6.53,1.72,19.8,19.8,0,0,0,6.45-.52A19.23,19.23,0,0,0,36,38.94a18.6,18.6,0,0,0,5.93-8.48,18.23,18.23,0,0,0,.95-8.22,19.88,19.88,0,0,0-2.91-8.46A19.15,19.15,0,0,0,33.6,7.62,18.86,18.86,0,0,0,26.52,5.1a19.89,19.89,0,0,0-6,.09,19.6,19.6,0,0,0-7.54,3,14.52,14.52,0,0,0-2.58,2.14c-.35.36-.07.54.14.72,1.43,1.28,2.73,2.69,4.11,4a1.18,1.18,0,0,1,.45.74c.09.94-.32,1.4-1.34,1.41-2,0-4,0-6,0Z" transform="translate(-0.51 -0.3)"/><path d="M26.11,17.45c0,2.15,0,4.31,0,6.46a1,1,0,0,0,.45.9q2.93,2.11,5.83,4.28c.88.66.93,1.19.28,2.08-.39.53-.75,1.08-1.17,1.57A1,1,0,0,1,30,33c-1.29-.87-2.56-1.78-3.83-2.69-1.42-1-2.82-2.08-4.25-3.11a.85.85,0,0,1-.42-.78c0-5.18,0-10.36,0-15.55a1.17,1.17,0,0,1,1.32-1.33c.6,0,1.19,0,1.79,0,1,0,1.49.45,1.49,1.48,0,2.15,0,4.31,0,6.46Z" transform="translate(-0.51 -0.3)"/></svg>