<?xml version="1.0" encoding="utf-8"?>
<!-- Generator: Adobe Illustrator 21.0.2, SVG Export Plug-In . SVG Version: 6.00 Build 0)  -->
<svg version="1.1" id="Calque_1" xmlns="http://www.w3.org/2000/svg" xmlns:xlink="http://www.w3.org/1999/xlink" x="0px" y="0px"
	 viewBox="0 0 24 24" style="enable-background:new 0 0 24 24;" xml:space="preserve" fill="#007eca" height="24" width="24">
<g>
	<path d="M0,15.7c0-0.7,0-1.4,0-2.1c0-0.8,0.3-1.2,1-1.6c1.4-0.6,2.9-1.2,4.3-1.8c0.2-0.1,0.3-0.2,0.3-0.5c0-1.3,0-2.6,0-3.9
		c0-0.8,0.3-1.2,1.1-1.6c1.5-0.6,3.1-1.3,4.6-2c0.5-0.2,0.9-0.2,1.4,0c1.5,0.7,3.1,1.3,4.6,2c0.7,0.3,1,0.8,1,1.6c0,1.3,0,2.5,0,3.8
		c0,0.3,0.1,0.5,0.4,0.6c1.4,0.6,2.7,1.2,4.1,1.7c0.8,0.3,1.2,0.9,1.1,1.7c0,1.4,0,2.7,0,4.1c0,0.7-0.3,1.2-1,1.5
		c-1.6,0.8-3.1,1.5-4.7,2.3c-0.5,0.3-1,0.3-1.4,0c-1.5-0.8-3.1-1.5-4.6-2.3c-0.2-0.1-0.4-0.1-0.7,0c-1.5,0.8-3.1,1.5-4.6,2.3
		c-0.5,0.2-1,0.2-1.4,0c-1.6-0.8-3.2-1.6-4.8-2.4C0.3,19,0,18.5,0,17.9C0,17.2,0,16.4,0,15.7z M7.1,5.6c0.2,0.1,0.3,0.2,0.4,0.2
		c1.4,0.6,2.7,1.2,4.1,1.8c0.2,0.1,0.4,0.1,0.7,0c1.4-0.6,2.8-1.2,4.2-1.8c0.1,0,0.2-0.1,0.3-0.2c-0.1-0.1-0.1-0.1-0.2-0.1
		c-1.5-0.6-3-1.3-4.4-1.9c-0.1-0.1-0.3,0-0.5,0C10.8,4,9.9,4.4,9,4.8C8.4,5,7.8,5.3,7.1,5.6z M10.8,13.2c-0.1-0.1-0.2-0.1-0.2-0.1
		c-1.3-0.6-2.6-1.1-4-1.7c-0.2-0.1-0.4,0-0.6,0c-1.3,0.5-2.6,1.1-3.9,1.7c-0.1,0-0.1,0.1-0.2,0.1c0.1,0.1,0.1,0.1,0.2,0.1
		C3.4,13.9,4.7,14.5,6,15c0.2,0.1,0.4,0.1,0.6,0c1.3-0.5,2.5-1.1,3.8-1.6C10.5,13.4,10.6,13.3,10.8,13.2z M22.1,13.2
		c-0.1-0.1-0.2-0.1-0.3-0.2c-1.3-0.6-2.6-1.1-4-1.7c-0.1-0.1-0.4-0.1-0.5,0c-1.3,0.5-2.6,1.1-3.9,1.7c-0.1,0-0.1,0.1-0.2,0.2
		c0.1,0.1,0.1,0.1,0.2,0.1c1.3,0.6,2.6,1.1,3.9,1.7c0.2,0.1,0.4,0,0.6,0c1.1-0.4,2.1-0.9,3.2-1.4C21.4,13.5,21.7,13.4,22.1,13.2z
		 M22.6,14.5c-1.4,0.6-2.7,1.1-4,1.7c-0.1,0-0.2,0.2-0.2,0.4c0,1.1,0,2.1,0,3.2c0,0.1,0,0.2,0.1,0.2c0.1,0,0.2,0,0.2-0.1
		c1.3-0.6,2.5-1.3,3.8-1.9c0.1-0.1,0.2-0.3,0.2-0.4c0-0.9,0-1.9,0-2.8C22.6,14.8,22.6,14.7,22.6,14.5z M7,20.1c0.1,0,0.2,0,0.2-0.1
		c1.3-0.6,2.5-1.3,3.8-1.9c0.2-0.1,0.3-0.2,0.3-0.4c0-0.9,0-1.9,0-2.8c0-0.1,0-0.2,0-0.3c-0.1,0-0.2,0-0.2,0.1
		c-1.2,0.5-2.5,1.1-3.7,1.6C7.1,16.3,7,16.4,7,16.7c0,1,0,2.1,0,3.1C7,19.9,7,20,7,20.1z M16.9,7.2c-0.1,0-0.2,0-0.3,0.1
		c-1.2,0.5-2.5,1.1-3.7,1.6c-0.2,0.1-0.3,0.2-0.3,0.4c0,0.8,0,1.5,0,2.3c0,0.1,0,0.2,0,0.3c0.1,0,0.1,0,0.1,0
		c1.3-0.6,2.6-1.1,3.9-1.7c0.1,0,0.2-0.2,0.2-0.3c0-0.8,0-1.6,0-2.4C17,7.3,16.9,7.3,16.9,7.2z"/>
</g>
</svg>
