<svg id="Calque_4" data-name="Calque 4" xmlns="http://www.w3.org/2000/svg" viewBox="0 0 41.57 47.69" fill="#007eca" width="24" height="24"><title>ic_relancer</title><path d="M44.51,36.42a5.76,5.76,0,0,0-1.64-2.48,13.21,13.21,0,0,1-3.66-7.48A45.05,45.05,0,0,1,38.68,19a12.71,12.71,0,0,0-.82-4.14A14.72,14.72,0,0,0,33,8.07a13.56,13.56,0,0,0-6.12-2.81c-.35-.06-.55-.08-.33-.57A2.94,2.94,0,0,0,24.63.56a1.25,1.25,0,0,0-1.5,0,2.86,2.86,0,0,0-1.92,4c.2.39.2.58-.29.65A13.24,13.24,0,0,0,14.7,8.11,14.47,14.47,0,0,0,10.22,14a12.93,12.93,0,0,0-1.16,5.17,40,40,0,0,1-.38,6.26,22.56,22.56,0,0,1-1,4.21,15.91,15.91,0,0,1-3.52,5.12,4.25,4.25,0,0,0,0,5.63A4.54,4.54,0,0,0,7.9,42c3.15,0,6.3,0,9.45,0,.24,0,.62-.12.58.32a3.74,3.74,0,0,0,.28,1.38,5.85,5.85,0,0,0,4.67,4.12,2.49,2.49,0,0,0,2,0,5.43,5.43,0,0,0,2.41-1,6,6,0,0,0,2.5-4.2c.07-.5.17-.65.67-.65,3,0,6.09,0,9.14,0a6.62,6.62,0,0,0,2.23-.34A4.59,4.59,0,0,0,44.51,36.42ZM24.62,45c0,.44-.47.7-1,.64a3.65,3.65,0,0,1-3.32-2.82c-.24-.8-.19-.88.72-.88.37-.07.63,0,.76.54a2.12,2.12,0,0,0,2,1.68C24.39,44.26,24.67,44.54,24.62,45Z" transform="translate(-3.08 -0.31)"/></svg>