<svg id="Calque_8" data-name="Calque 8" xmlns="http://www.w3.org/2000/svg" viewBox="0 0 35.51 47.68" fill="#007eca" width="24" height="24"><title>ic_file_txt</title><path d="M40.36,9.32q-3.75-3.8-7.54-7.56A5.56,5.56,0,0,0,29.3.16H11.06A7,7,0,0,0,9,.67a4.52,4.52,0,0,0-2.78,4q0,19,0,38.07a6.12,6.12,0,0,0,.24,1.87,5.15,5.15,0,0,0,4.38,3.18H37a5,5,0,0,0,4.73-4.45c0-10.24,0-20.48,0-30.72A4.57,4.57,0,0,0,40.36,9.32Zm-10.45-4,6.79,6.82H30.28c-.31,0-.37-.15-.37-.42C29.92,9.59,29.91,7.44,29.91,5.33Zm7.4,37.33c0,.41-.09.57-.54.57q-12.78,0-25.57,0c-.54,0-.52-.28-.52-.65q0-9.3,0-18.6c0-6.16,0-12.32,0-18.48,0-.59.14-.75.74-.75q6.71,0,13.43,0c.53,0,.65.16.64.66,0,3,0,5.91,0,8.87a2.2,2.2,0,0,0,2.31,2.31c3,0,6,0,8.93,0,.45,0,.6.09.6.57Q37.3,29.91,37.31,42.66Z" transform="translate(-6.24 -0.16)"/><path d="M24,22.15h7.45c1,0,1.43.4,1.43,1.45,0,.72,0,1.44,0,2.15A1.14,1.14,0,0,1,31.69,27q-7.66,0-15.33,0c-.84,0-1.24-.46-1.24-1.32q0-1,0-2.09c0-1,.41-1.39,1.42-1.4Z" transform="translate(-6.24 -0.16)"/><path d="M24,34.72H16.61c-1.15,0-1.48-.34-1.48-1.5q0-1,0-2a1.14,1.14,0,0,1,1.24-1.27c.7,0,1.39,0,2.09,0,4.23,0,8.45,0,12.68,0,1.16,0,1.85.28,1.75,1.72,0,.63,0,1.27,0,1.91a1.11,1.11,0,0,1-1.25,1.18Z" transform="translate(-6.24 -0.16)"/></svg>