<?xml version="1.0" encoding="utf-8"?>
<!-- Generator: Adobe Illustrator 21.0.2, SVG Export Plug-In . SVG Version: 6.00 Build 0)  -->
<svg version="1.1" id="Calque_1" xmlns="http://www.w3.org/2000/svg" xmlns:xlink="http://www.w3.org/1999/xlink" x="0px" y="0px"
	 viewBox="0 0 24 24" style="enable-background:new 0 0 24 24;" xml:space="preserve">
<style type="text/css">
	.st0{fill:#FFFFFF;}
</style>
<g>
	<path class="st0" d="M13.7,0c-0.2,0-0.4,0-0.5,0c-3.3,0-6.7,0-10,0C2.2,0,1.7,0.5,1.7,1.4c0,7.1,0,14.1,0,21.2
		c0,0.9,0.5,1.4,1.3,1.4c6,0,11.9,0,17.9,0c0.8,0,1.3-0.5,1.3-1.4c0-4.5,0-9.1,0-13.6c0-0.4-0.1-0.5-0.5-0.5c-2.2,0-4.5,0-6.7,0
		c-0.9,0-1.4-0.5-1.4-1.4c0-2.2,0-4.4,0-6.6C13.7,0.4,13.7,0.2,13.7,0z M21.6,6.8c-0.2-0.6-5.7-6-6.1-6.1c0,0.1,0,0.3,0,0.4
		c0,1.7,0,3.5,0,5.2c0,0.4,0.1,0.5,0.5,0.5c1.7,0,3.5,0,5.2,0C21.3,6.8,21.5,6.8,21.6,6.8z"/>
	<path d="M13.7,0c0,0.2,0,0.3,0,0.5c0,2.2,0,4.4,0,6.6c0,0.9,0.5,1.4,1.4,1.4c2.2,0,4.5,0,6.7,0c0.4,0,0.5,0.1,0.5,0.5
		c0,4.5,0,9.1,0,13.6c0,0.8-0.5,1.4-1.3,1.4C15,24,9,24,3.1,24c-0.9,0-1.3-0.5-1.3-1.4c0-7.1,0-14.1,0-21.2C1.7,0.5,2.2,0,3.1,0
		c3.3,0,6.7,0,10,0C13.3,0,13.5,0,13.7,0z"/>
	<path d="M21.6,6.8c-0.2,0-0.3,0-0.5,0c-1.7,0-3.5,0-5.2,0c-0.4,0-0.5-0.1-0.5-0.5c0-1.7,0-3.5,0-5.2c0-0.1,0-0.3,0-0.4
		C15.9,0.8,21.4,6.2,21.6,6.8z"/>
</g>
</svg>
