<?xml version="1.0" encoding="utf-8"?>
<!-- Generator: Adobe Illustrator 21.0.2, SVG Export Plug-In . SVG Version: 6.00 Build 0)  -->
<svg version="1.1" id="Calque_1" xmlns="http://www.w3.org/2000/svg" xmlns:xlink="http://www.w3.org/1999/xlink" x="0px" y="0px"
	 viewBox="0 0 24 24" style="enable-background:new 0 0 24 24;" xml:space="preserve" fill="#FFFFFF" width="24">
<g>
	<path d="M12,3c3.4,0,6.8,0,10.1,0C23.2,3,24,3.8,24,4.8c0,4.8,0,9.6,0,14.3c0,1-0.8,1.8-1.8,1.8c-0.1,0-0.2,0-0.3,0
		c-6.6,0-13.2,0-19.8,0C0.7,21,0,20.3,0,18.9C0,14.3,0,9.7,0,5C0,4,0.8,3,2,3C5.3,3.1,8.7,3,12,3z M22.5,12c0-2.3,0-4.5,0-6.8
		c0-0.7-0.1-0.8-0.8-0.8c-6.5,0-13,0-19.5,0c-0.7,0-0.8,0.1-0.8,0.8c0,4.5,0,9,0,13.6c0,0.1,0,0.2,0,0.3c0,0.2,0.2,0.4,0.4,0.4
		c1.3,0,2.6,0,3.9,0c0.2,0,0.3-0.1,0.3-0.3c0-0.3,0-0.5,0-0.8c0-0.2,0.2-0.4,0.3-0.4c0.8-0.3,1.1,0,1.1,0.8c0,0.1,0,0.1,0,0.2
		c-0.1,0.4,0.1,0.4,0.4,0.4c2.2,0,4.5,0,6.7,0c0.5,0,1,0,1.5,0c0.3,0,0.4-0.1,0.4-0.4c0-0.2,0-0.5,0-0.7c0-0.1,0.1-0.3,0.2-0.3
		c0.4,0,0.7-0.1,1.1,0c0.1,0,0.1,0.5,0.1,0.7c0,0.1,0,0.2,0,0.3c0,0.3,0.1,0.4,0.4,0.4c1.2,0,2.4,0,3.5,0c0.6,0,0.7-0.1,0.7-0.7
		C22.5,16.6,22.5,14.3,22.5,12z"/>
	<path d="M7.5,16.5c-0.9,0-1.9,0-2.8,0c-0.9,0-1.6-0.5-1.6-1.5c-0.1-1,0.1-2,0.5-2.9c0.2-0.5,0.6-0.8,1.1-1c0.4-0.2,0.8-0.1,1.1,0.1
		c0.2,0.2,0.5,0.3,0.7,0.4c0.7,0.3,1.4,0.4,2.1,0c0.2-0.1,0.4-0.2,0.6-0.3c0.9-0.5,1.8-0.3,2.3,0.6c0.5,1.1,0.7,2.2,0.5,3.4
		c-0.1,0.7-0.7,1.2-1.5,1.2C9.4,16.5,8.5,16.5,7.5,16.5z"/>
	<path d="M10.1,8.7c0.1,1.3-1,2.6-2.6,2.6c-1.4,0-2.7-1.3-2.6-2.7C4.9,7.2,6.1,6,7.5,6C9,6,10.2,7.3,10.1,8.7z"/>
	<path d="M17.2,9c-1.1,0-2.1,0-3.2,0c-0.4,0-0.5-0.1-0.5-0.5c0-1,0-1,0.9-1c1.9,0,3.9,0,5.8,0c0.7,0,0.7,0,0.7,0.7
		c0,0.1,0,0.2,0,0.3C21,8.9,20.9,9,20.5,9C19.4,9,18.3,9,17.2,9z"/>
	<path d="M17.2,12c-1,0-2.1,0-3.1,0c-0.5,0-0.6-0.1-0.6-0.6c0-0.9,0-0.9,0.9-0.9c1.9,0,3.8,0,5.7,0c0.2,0,0.3,0,0.5,0
		c0.1,0,0.1,0,0.2,0.1c0.3,0.3,0.2,0.7,0.2,1.1c0,0.3-0.3,0.3-0.5,0.3C19.4,12,18.3,12,17.2,12z"/>
	<path d="M17.3,13.5c1.1,0,2.1,0,3.2,0c0.5,0,0.5,0.1,0.5,0.5c0,0.9,0,0.9-0.9,0.9c-2,0-4,0-6,0c-0.5,0-0.5,0-0.6-0.6
		c0-0.8,0-0.8,0.8-0.8C15.4,13.5,16.3,13.5,17.3,13.5z"/>
</g>
</svg>
