<svg id="Calque_5" data-name="Calque 5" xmlns="http://www.w3.org/2000/svg" viewBox="0 0 47.2 47.34" fill="#FFFFFF" height="24" width="24" ><title>ic_renvoyer</title><path d="M47.37,3.48a4.59,4.59,0,0,0-3.2-3,4.3,4.3,0,0,0-2.84.31c-3.48,2-6.93,3.95-10.39,5.94-2.62,1.51-5.22,3.06-7.84,4.57Q17,14.83,11,18.3C8.83,19.53,6.67,20.75,4.55,22c-1.17.7-2.49,1.18-3.33,2.37a4.39,4.39,0,0,0,1.42,6.38,43.42,43.42,0,0,0,4.3,1.84c2.07.87,4.14,1.74,6.23,2.57a.67.67,0,0,1,.53.74c0,2.42,0,4.83,0,7.25a4.34,4.34,0,0,0,3.55,4.33,2.2,2.2,0,0,0,2,0l.94-.42a7,7,0,0,0,2.39-2.47c1-1.29,2-2.6,2.92-3.91a.4.4,0,0,1,.59-.16c1,.45,2,.85,3,1.26,2,.8,3.9,1.62,5.86,2.4a5.65,5.65,0,0,0,3.83.6,4.23,4.23,0,0,0,3.11-2.9,33.64,33.64,0,0,0,.78-4.38c.29-1.89.54-3.79.83-5.68.2-1.31.44-2.61.65-3.92.24-1.51.45-3,.68-4.52.18-1.21.37-2.42.56-3.62q.34-2.23.68-4.47c.19-1.27.37-2.54.56-3.8s.46-2.77.64-4.16S47.87,4.8,47.37,3.48ZM21.18,39l-1.72,2.29L18.25,43l-.14-.05c0-1.77,0-3.55,0-5.32,0-.32.15-.33.38-.23l2.64,1.09C21.51,38.64,21.33,38.85,21.18,39ZM42.92,6.35c-.17,1.33-.4,2.66-.6,4-.29,2-.58,3.9-.87,5.86-.21,1.41-.46,2.81-.67,4.22-.28,1.85-.54,3.71-.81,5.56-.17,1.11-.36,2.21-.53,3.32-.24,1.53-.46,3.06-.7,4.59-.19,1.23-.39,2.45-.59,3.68a22.59,22.59,0,0,0-.35,2.36c0,.7-.39.53-.76.38L33,38.6l-6.4-2.67-3.06-1.27c1.1-1.6,2.16-3.16,3.23-4.71,1.18-1.7,2.38-3.39,3.56-5.09l5.86-8.44c.65-.94.68-1.57.09-2.2a1.5,1.5,0,0,0-2.08-.1l-4.61,4-11.5,10c-1,.87-2,1.73-3,2.62a.67.67,0,0,1-.82.11q-4.5-1.91-9-3.78A4.59,4.59,0,0,0,4.79,27L43.12,4.87A4.14,4.14,0,0,1,42.92,6.35Z" transform="translate(-0.4 -0.39)"/></svg>