<svg id="Calque_9" data-name="Calque 9" xmlns="http://www.w3.org/2000/svg" viewBox="0 0 35.58 47.68" fill="#FFFFFF" height="24" width="24"><title>ic_file_outline</title><path d="M41.78,12.32a3.83,3.83,0,0,0-1-2.64c-1-1.1-2.1-2.14-3.16-3.2-1.51-1.53-3-3.08-4.54-4.6A4.75,4.75,0,0,0,30.44.36C30.14.09,10,.09,9.68.37A4.73,4.73,0,0,0,6.21,5.2c.06,12.61,0,25.21,0,37.82a4.31,4.31,0,0,0,.52,2.25,4.37,4.37,0,0,0,2.94,2.28,1.39,1.39,0,0,0,1,.29H37.3a1.39,1.39,0,0,0,1-.29c.34.08.59-.15.85-.29a4.29,4.29,0,0,0,2.58-3.84Q41.82,27.87,41.78,12.32ZM29.93,5.26l6.77,6.89h0a.61.61,0,0,0-.24-.05h-6c-.31,0-.56,0-.55-.43C29.94,9.56,29.93,7.44,29.93,5.26Zm7.41,37.37c0,.45-.11.6-.58.59q-12.74,0-25.48,0c-.56,0-.62-.21-.62-.68q0-9.31,0-18.63c0-6.15,0-12.3,0-18.44,0-.61.13-.79.77-.78q6.69,0,13.39,0c.56,0,.68.16.68.69,0,2.92,0,5.84,0,8.76a2.22,2.22,0,0,0,2.41,2.41c2.94,0,5.88,0,8.82,0,.48,0,.63.11.63.61Q37.33,29.89,37.35,42.63Z" transform="translate(-6.21 -0.16)"/></svg>