<?xml version="1.0" encoding="utf-8"?>
<!-- Generator: Adobe Illustrator 21.0.2, SVG Export Plug-In . SVG Version: 6.00 Build 0)  -->
<svg version="1.1" id="Calque_1" xmlns="http://www.w3.org/2000/svg" xmlns:xlink="http://www.w3.org/1999/xlink" x="0px" y="0px"
	 viewBox="0 0 24 24" style="enable-background:new 0 0 24 24;" xml:space="preserve">
<style type="text/css">
	.st0{fill:#FFFFFF;}
</style>
<g>
	<path class="st0" d="M12,22.1c2.8,0,5.7,0,8.5,0c1.9,0,3.6-1.4,3.5-3.5c0-3.2,0-6.4,0-9.6c0-0.4,0-0.8-0.1-1.2
		c-0.4-1.4-1.7-2.3-3.2-2.3c-2.6,0-5.1,0-7.7,0c-0.4,0-0.9,0-1.3,0C11.2,5.6,11,5.5,11,5c0-0.1,0-0.2,0-0.2
		c-0.1-1.7-1.5-2.9-3.2-2.9c-1.5,0-3.1,0-4.6,0C1.4,1.9,0,3.2,0,5.1c0,4.6,0,9.2,0,13.8c0,1.8,1.4,3.2,3.3,3.2
		C6.2,22.1,9.1,22.1,12,22.1z"/>
	<path d="M12,22.1c-2.9,0-5.8,0-8.7,0c-1.8,0-3.3-1.4-3.3-3.2c0-4.6,0-9.2,0-13.8c0-1.8,1.4-3.2,3.2-3.2c1.5,0,3.1,0,4.6,0
		c1.7,0,3,1.2,3.2,2.9c0,0.1,0,0.2,0,0.2c-0.1,0.5,0.2,0.5,0.6,0.5c0.4,0,0.9,0,1.3,0c2.6,0,5.1,0,7.7,0c1.6,0,2.8,0.9,3.2,2.3
		C24,8.2,24,8.6,24,9c0,3.2,0,6.4,0,9.6c0,2.1-1.6,3.6-3.5,3.5C17.6,22.1,14.8,22.1,12,22.1z"/>
</g>
</svg>
