<?xml version="1.0" encoding="utf-8"?>
<!-- Generator: Adobe Illustrator 21.0.2, SVG Export Plug-In . SVG Version: 6.00 Build 0)  -->
<svg version="1.1" id="Calque_1" xmlns="http://www.w3.org/2000/svg" xmlns:xlink="http://www.w3.org/1999/xlink" x="0px" y="0px"
	 viewBox="0 0 24 24" style="enable-background:new 0 0 24 24;" xml:space="preserve" fill="#007eca" height="24" width="24">
<path d="M12,4.2c-1.8,0-3.5,0.3-5,0.9S4.2,6.5,3.2,7.6s-1.4,2.2-1.4,3.4c0,1,0.3,1.9,0.9,2.8c0.6,0.9,1.5,1.7,2.7,2.3l1.1,0.7
	L6.3,18c-0.2,0.8-0.5,1.6-0.9,2.3C6.7,19.7,7.9,18.9,9,18l0.6-0.5l0.8,0.1c0.6,0.1,1.2,0.1,1.7,0.1c1.8,0,3.5-0.3,5-0.9
	c1.6-0.6,2.8-1.4,3.7-2.5s1.4-2.2,1.4-3.4s-0.5-2.3-1.4-3.4S18.6,5.7,17,5.1S13.8,4.2,12,4.2z M23.8,10.9c0,1.5-0.5,2.9-1.6,4.2
	c-1.1,1.3-2.5,2.3-4.3,3.1c-1.8,0.8-3.8,1.1-5.9,1.1c-0.6,0-1.3,0-1.9-0.1c-1.7,1.5-3.8,2.6-6.1,3.2c-0.4,0.1-0.9,0.2-1.5,0.3H2.4
	c-0.1,0-0.3,0-0.4-0.1c-0.1-0.1-0.2-0.2-0.2-0.4v0c0,0,0-0.1,0-0.2c0-0.1,0-0.1,0-0.1c0,0,0-0.1,0.1-0.1L2,21.7l0.1-0.1l0.1-0.1
	c0.1-0.1,0.2-0.2,0.4-0.5c0.2-0.2,0.4-0.4,0.5-0.5c0.1-0.1,0.2-0.3,0.4-0.5s0.3-0.5,0.4-0.7c0.1-0.2,0.2-0.5,0.4-0.8s0.2-0.7,0.3-1
	c-1.4-0.8-2.5-1.8-3.3-2.9s-1.2-2.4-1.2-3.7c0-1.5,0.5-2.9,1.6-4.2s2.5-2.3,4.3-3.1S9.9,2.5,12,2.5s4.1,0.4,5.9,1.1s3.2,1.8,4.3,3.1
	C23.3,8,23.8,9.4,23.8,10.9z"/>
<path d="M12.3,5.8C9.4,5.8,7,8.1,7,11.1s2.4,5.3,5.3,5.3s5.3-2.4,5.3-5.3S15.2,5.8,12.3,5.8 M12.3,7.7c0.5,0,1.1,0.1,1.6,0.3
	l-4.5,4.5c-0.2-0.5-0.3-1-0.3-1.6C9,9.2,10.5,7.7,12.3,7.7 M15.6,11.1c0,1.8-1.5,3.3-3.3,3.3c-0.5,0-1.1-0.1-1.6-0.3l4.5-4.5
	C15.5,10,15.6,10.5,15.6,11.1"/>
</svg>
