<svg id="Calque_6" data-name="Calque 6" xmlns="http://www.w3.org/2000/svg" viewBox="0 0 47.54 47.53" fill="#007eca" width="24" height="24"><title>ic_decision</title><path d="M31.91,4.54a2.06,2.06,0,0,1-.75,1.73c-.3.29-.27.48,0,.76q4.92,4.89,9.82,9.81c.28.28.45.3.75,0,1.24-1.16,2.39-1.11,3.59.11.57.57,1.14,1.13,1.7,1.71a2.14,2.14,0,0,1,0,3.24c-3.77,3.79-7.57,7.55-11.34,11.36a2.31,2.31,0,0,1-3.4,0c-.67-.7-1.38-1.37-2-2.07a2.12,2.12,0,0,1,.11-2.9c.57-.61.57-.61,0-1.19-.93-.93-1.87-1.85-2.78-2.79-.29-.31-.47-.33-.78,0q-3.42,3.46-6.88,6.88c-.34.34-.22.53.05.8a2.83,2.83,0,0,1,.74,3.43,3.09,3.09,0,0,1-.69.92Q14.78,41.56,9.54,46.79a2.85,2.85,0,0,1-4.24.06C3.85,45.45,2.43,44,1,42.54a2.73,2.73,0,0,1,.08-3.95C3.57,36.12,6,33.66,8.5,31.2q1.57-1.57,3.15-3.14A2.85,2.85,0,0,1,16,28c.42.41.61.33,1,0q3.33-3.37,6.7-6.69c.35-.35.33-.55,0-.87-1-1-2-1.94-2.93-2.93-.27-.27-.43-.32-.74,0-1.29,1.18-2.37,1.14-3.6-.09-.58-.58-1.18-1.16-1.75-1.76a2.14,2.14,0,0,1,0-3.15Q20.36,6.69,26.1,1a2.13,2.13,0,0,1,3.24,0c.69.62,1.33,1.3,2,2A1.87,1.87,0,0,1,31.91,4.54Z" transform="translate(-0.24 -0.23)"/></svg>