<?xml version="1.0" encoding="utf-8"?>
<!-- Generator: Adobe Illustrator 21.0.2, SVG Export Plug-In . SVG Version: 6.00 Build 0)  -->
<svg version="1.1" id="Calque_1" xmlns="http://www.w3.org/2000/svg" xmlns:xlink="http://www.w3.org/1999/xlink" x="0px" y="0px"
	 viewBox="0 0 24 24" style="enable-background:new 0 0 24 24;" xml:space="preserve" fill="#FFFFFF" width="24">
<g>
	<path d="M24,20.6c-0.7-0.1-1.3-0.2-1.9-0.3c-0.9-0.3-1.8-0.7-2.8-1c-1.7-0.5-3.5-0.7-5.2-0.1c-0.8,0.3-1.5,0.8-2.3,1.2
		c-0.2-0.2-0.5-0.4-0.9-0.7c-1.4-0.9-2.9-1.1-4.4-0.9C5.3,19,4,19.4,2.8,19.9c-0.8,0.3-1.6,0.4-2.5,0.6c-0.1,0-0.2,0-0.4,0
		c0-0.3,0.1-0.7,0.1-1c0.2-1.7,0.4-3.3,0.6-5C0.9,13,1,11.4,1.2,9.8c0.2-1.3,0.3-2.7,0.5-4c0-0.1,0.1-0.3,0.2-0.3
		c2.1-1.1,4.3-1.6,6.7-1.3c1.1,0.1,2.2,0.5,3.1,1c0.1,0.1,0.3,0,0.4,0c1.7-1,3.6-1.2,5.5-1c1.5,0.1,2.8,0.6,4.1,1.2
		c0.2,0.1,0.4,0.2,0.4,0.5c0.1,1.3,0.3,2.7,0.5,4c0.2,1.6,0.4,3.1,0.6,4.7c0.2,1.6,0.4,3.1,0.6,4.7C23.9,19.7,23.9,20.1,24,20.6z
		 M1.8,18.6c0.3-0.1,0.5-0.2,0.7-0.2c0.8-0.3,1.6-0.6,2.4-0.8c2.4-0.6,4.7-0.5,6.9,0.8c0.1,0.1,0.3,0,0.5,0c0.8-0.4,1.7-0.8,2.6-0.9
		c1.9-0.3,3.7-0.1,5.5,0.6c0.6,0.2,1.2,0.4,1.8,0.7c0-0.2,0-0.3,0-0.4c-0.1-0.5-0.1-1-0.2-1.5c-0.2-1.6-0.4-3.2-0.6-4.8
		c-0.2-1.7-0.4-3.3-0.6-5c0-0.3-0.1-0.4-0.3-0.5c-1-0.4-1.9-0.7-3-0.7c-1.3-0.1-2.5-0.1-3.7,0.5c-0.6,0.3-1.2,0.7-1.9,1.1
		c-0.1-0.1-0.3-0.3-0.5-0.4c-0.2-0.2-0.4-0.3-0.7-0.4C8.2,5.3,5.8,5.6,3.4,6.6c-0.1,0-0.2,0.2-0.2,0.4C3.1,7.8,3,8.7,2.9,9.5
		c-0.3,2.7-0.7,5.4-1,8C1.8,17.9,1.8,18.2,1.8,18.6z"/>
	<path d="M2.3,17.9c0.1-1.2,0.3-2.3,0.4-3.4c0.2-1.3,0.3-2.6,0.5-4c0.1-1.1,0.3-2.2,0.4-3.3c0-0.1,0.1-0.3,0.3-0.4
		c1.9-0.7,3.9-1,5.9-0.3c0.7,0.3,1.4,0.7,1.9,1.2c0.2,0.2,0.3,0.2,0.5,0c1-1,2.3-1.5,3.7-1.6c0,0,0.1,0,0.2,0c0,0.8,0.1,1.6,0.1,2.5
		c0.1,1.8,0.2,3.5,0.3,5.3c0.1,0.9,0.1,1.8,0.2,2.6c0,0.3-0.1,0.2-0.3,0.3c-0.6,0-1.2,0-1.8,0.1c-0.8,0.2-1.6,0.5-2.4,0.9
		c-0.3,0.1-0.4,0.2-0.7,0c-1.8-1.1-3.8-1.2-5.8-0.9c-1.1,0.2-2.1,0.6-3.1,0.9C2.6,17.8,2.5,17.9,2.3,17.9z"/>
</g>
</svg>
